# xmcd
#
# Track frame offsets: 
#        150
#        21832
#        40532
#        57620
#        73862
#        93735
#        111907
#        131827
#        154480
#        164965
#        179967
#
# Disc length: 2616 seconds
#
# Revision: 0
# Processed by: cddbd v1.5.1PL0 Copyright (c) Steve Scherf et al.
# Submitted via: ExactAudioCopy v0.95a5
#
DISCID=b10a360b
DTITLE=Jandek - 0752 Modern Dances
DYEAR=1987
DGENRE=Lo-Fi
TTITLE0=Painted My Teeth
TTITLE1=Twelve Minutes Since February 32'nd
TTITLE2=Hand for Harry Idle
TTITLE3=Number 512
TTITLE4=Nothing is Better than God
TTITLE5=Spiritual Song
TTITLE6=Spanish in Me 003
TTITLE7=I Want to Know Why
TTITLE8=Simple as That
TTITLE9=Open E
TTITLE10=Carnival Queen
EXTD=
EXTT0=
EXTT1=
EXTT2=
EXTT3=
EXTT4=
EXTT5=
EXTT6=
EXTT7=
EXTT8=
EXTT9=
EXTT10=
PLAYORDER=
